<?xml version="1.0" encoding="utf-8"?>
<!-- Svg Vector Icons : http://www.onlinewebfonts.com/icon -->
<!DOCTYPE svg PUBLIC "-//W3C//DTD SVG 1.1//EN" "http://www.w3.org/Graphics/SVG/1.1/DTD/svg11.dtd">
<svg version="1.1" xmlns="http://www.w3.org/2000/svg" xmlns:xlink="http://www.w3.org/1999/xlink" x="0px" y="0px" viewBox="0 0 1000 1000" enable-background="new 0 0 1000 1000" xml:space="preserve">
<metadata> Svg Vector Icons : http://www.onlinewebfonts.com/icon </metadata>
<g><path d="M989.8,563.5c0-267-218-482.7-488.1-483.3c-0.4,0-1.1,0-1.5,0l0,0l0,0C229.4,80.2,10,296.1,10,563.5c0,0.2,0,0.4,0,0.4c0,0.2,0,0.4,0,0.7c0,140,60.4,265.7,156.4,354.1l1.1,1.1l80-80L222.8,815l-55.3,55.3c-34.6-37.6-62.5-78.7-83.1-124.2c-22.7-50.3-35.9-103.7-38.7-158.6H115v-35H45.2c1.3-56.9,13.3-112.2,35.6-164.2C101,341.1,129,298,163.7,260.2l60.6,60.6l12-12l11.6-11.4l0,0l1.1-1.1l-60.8-60.8c39.4-36.7,84.6-66,134.5-86.8c50.7-21.2,104.3-31.3,159.7-33v80.5h35v-80.7c55.3,1.7,109.1,11.6,159.9,33c49.6,20.8,94.7,49.9,134.1,86.6l-61,61l1.1,1.1l0,0l11.6,11.4l12,12l61-61c35,37.8,63,80.9,83.1,128.4c22.3,52.3,34.1,107.4,35.4,164.5h-69.8v35h69.3c-3.1,54.9-16,108.5-38.7,158.6c-20.8,45.5-48.8,86.6-83.3,124.2L776.5,815l-24.7,24.7l80.3,80l5.7-5.5C931.2,826.2,990,702.2,990,564.4c0-0.2,0-0.4,0-0.7C989.8,564,989.8,563.8,989.8,563.5z"/><path d="M465.8,497.3c-2.4,1.7-3.7,3.5-5.2,5.2c-11.8,10.7-19.5,25.8-19.5,42.9c0,32.1,26.5,58.2,58.8,58.2c18.6,0,35-8.5,45.7-21.9c0.9-0.9,2-1.7,2.6-2.6l178-206l-21.9-23.6L465.8,497.3z"/></g>
</svg>